<svg width="283.801" height="111.3" viewBox="0 0 283.801 111.3" xmlns="http://www.w3.org/2000/svg"><g id="svgGroup" stroke-linecap="round" fill-rule="evenodd" font-size="9pt" stroke="#000" stroke-width="0.25mm" fill="#000" style="stroke:#000;stroke-width:0.25mm;fill:#000"><path d="M 225.801 21 L 218.801 19.5 Q 217.801 23.6 216.401 28.5 Q 215.001 33.4 213.001 39 A 6.357 6.357 0 0 1 213.628 38.646 Q 214.315 38.312 214.863 38.301 A 1.853 1.853 0 0 1 214.901 38.3 Q 215.601 38.3 215.601 39.2 A 3.701 3.701 0 0 1 215.216 40.714 Q 214.28 42.761 211.071 45.827 A 54.568 54.568 0 0 1 209.801 47 Q 208.101 51 205.951 54.95 Q 203.801 58.9 201.201 62.7 Q 194.296 73.011 189.18 73.569 A 5.341 5.341 0 0 1 188.601 73.6 A 5.406 5.406 0 0 1 187.962 73.566 Q 187.316 73.489 187.001 73.237 A 0.774 0.774 0 0 1 186.701 72.6 A 0.72 0.72 0 0 1 186.726 72.403 Q 186.813 72.1 187.201 72.1 A 2.427 2.427 0 0 1 187.408 72.11 Q 187.658 72.132 188.001 72.2 Q 188.484 72.297 188.687 72.3 A 0.865 0.865 0 0 0 188.701 72.3 A 6.832 6.832 0 0 0 192.037 71.316 Q 195.865 69.166 200.491 62.315 A 71.86 71.86 0 0 0 200.901 61.7 Q 205.701 54.5 209.001 46.4 Q 208.003 42.991 207.835 40.896 A 9.978 9.978 0 0 1 207.801 40.1 A 13.861 13.861 0 0 1 207.837 39.064 Q 207.958 37.454 208.496 36.989 A 0.75 0.75 0 0 1 209.001 36.8 Q 210.401 36.8 211.501 39.7 A 35.587 35.587 0 0 0 212.396 37.673 Q 213.335 35.37 214.356 32.161 A 118.806 118.806 0 0 0 214.501 31.7 Q 216.101 26.6 217.701 19.2 Q 204.729 16.456 196.805 15.994 A 51.758 51.758 0 0 0 193.801 15.9 A 36.14 36.14 0 0 0 187.844 16.347 Q 177.274 18.123 176.914 26.968 A 15.553 15.553 0 0 0 176.901 27.6 A 13.629 13.629 0 0 0 179.678 35.735 Q 181.873 38.764 185.801 41.5 A 2.416 2.416 0 0 1 185.956 41.626 Q 186.186 41.83 186.2 41.981 A 0.208 0.208 0 0 1 186.201 42 A 0.315 0.315 0 0 1 186.173 42.139 Q 186.109 42.272 185.899 42.295 A 0.875 0.875 0 0 1 185.801 42.3 Q 185.701 42.3 185.301 42.1 Q 178.599 38.295 175.703 33.618 A 14.22 14.22 0 0 1 173.501 26 A 10.882 10.882 0 0 1 174.439 21.398 Q 175.951 18.114 179.901 16.2 A 22.221 22.221 0 0 1 184.667 14.628 Q 186.985 14.128 189.677 13.971 A 43.552 43.552 0 0 1 192.201 13.9 A 68.203 68.203 0 0 1 197.808 14.161 Q 205.811 14.829 218.101 17.2 A 76.981 76.981 0 0 1 218.585 14.356 A 89.981 89.981 0 0 1 218.851 13 Q 219.301 10.8 219.801 8.5 A 0.225 0.225 0 0 1 219.916 8.631 Q 220.077 8.978 220.098 10.207 A 22.918 22.918 0 0 1 220.101 10.6 Q 220.101 13.082 219.282 17.02 A 65.878 65.878 0 0 1 219.201 17.4 L 227.001 18.9 A 53.879 53.879 0 0 1 231.737 12.124 Q 238.47 4.027 246.046 3.277 A 15.779 15.779 0 0 1 247.601 3.2 Q 253.608 3.2 254.309 7.647 A 8.05 8.05 0 0 1 254.401 8.9 A 4.62 4.62 0 0 1 254.389 9.246 Q 254.349 9.782 254.17 9.937 A 0.25 0.25 0 0 1 254.001 10 A 0.304 0.304 0 0 1 253.726 9.825 Q 253.601 9.603 253.601 9.1 A 4.284 4.284 0 0 0 253.213 7.212 Q 252.334 5.4 249.463 5.072 A 12.057 12.057 0 0 0 248.101 5 Q 242.118 5 235.639 14.236 A 68.233 68.233 0 0 0 232.101 19.9 A 229.672 229.672 0 0 0 236.022 20.58 Q 239.12 21.088 241.651 21.4 A 83.113 83.113 0 0 0 244.388 21.695 Q 246.672 21.9 248.401 21.9 Q 254.455 21.9 256.916 20.104 A 3.885 3.885 0 0 0 258.601 16.8 A 3.543 3.543 0 0 0 258.552 16.192 Q 258.479 15.777 258.301 15.45 A 6.401 6.401 0 0 1 258.184 15.227 Q 258.001 14.857 258.001 14.7 A 0.666 0.666 0 0 1 258.009 14.595 Q 258.039 14.409 258.187 14.401 A 0.253 0.253 0 0 1 258.201 14.4 Q 258.856 14.4 259.423 15.974 A 9.935 9.935 0 0 1 259.501 16.2 A 7.996 7.996 0 0 1 259.825 17.519 A 6.485 6.485 0 0 1 259.901 18.5 A 5.328 5.328 0 0 1 256.821 23.586 Q 254.268 24.9 249.601 24.9 Q 246.701 24.9 242.001 24.2 A 130.972 130.972 0 0 1 238.223 23.577 Q 234.864 22.975 230.801 22.1 A 8.309 8.309 0 0 0 230.667 22.349 Q 230.114 23.403 228.087 27.608 A 1176.892 1176.892 0 0 0 227.801 28.2 Q 225.811 32.335 222.413 39.224 A 3263.33 3263.33 0 0 1 220.201 43.7 Q 222.89 42.124 231.169 42.009 A 96.304 96.304 0 0 1 232.501 42 A 83.308 83.308 0 0 1 238.38 42.196 Q 241.41 42.411 243.99 42.862 A 35.035 35.035 0 0 1 248.701 44 Q 249.126 44.17 249.19 44.34 A 0.17 0.17 0 0 1 249.201 44.4 A 0.315 0.315 0 0 1 249.173 44.539 Q 249.109 44.672 248.899 44.695 A 0.875 0.875 0 0 1 248.801 44.7 Q 247.701 44.7 245.551 44.45 Q 243.401 44.2 242.201 44.2 Q 238.701 44.2 235.351 44.5 Q 232.001 44.8 228.901 45.3 Q 220.038 46.984 219.03 50.475 A 3.319 3.319 0 0 0 218.901 51.4 A 1.712 1.712 0 0 0 218.926 51.675 Q 218.972 51.957 219.105 52.327 A 6.311 6.311 0 0 0 219.151 52.45 Q 219.337 52.933 219.385 53.222 A 1.107 1.107 0 0 1 219.401 53.4 A 0.731 0.731 0 0 1 219.017 53.277 Q 218.57 52.999 218.051 52.1 A 8.899 8.899 0 0 1 217.615 51.247 Q 217.425 50.816 217.319 50.424 A 3.879 3.879 0 0 1 217.201 49.8 A 180.561 180.561 0 0 1 213.975 55.802 Q 212.403 58.592 210.884 61.016 A 106.789 106.789 0 0 1 210.451 61.7 Q 207.201 66.8 204.101 70.3 A 43.033 43.033 0 0 1 198.046 75.982 Q 194.243 78.87 190.311 80.19 A 20.958 20.958 0 0 1 183.601 81.3 Q 179.366 81.3 176.282 79.883 A 12.867 12.867 0 0 1 175.901 79.7 A 10.168 10.168 0 0 1 173.823 78.321 A 6.153 6.153 0 0 1 171.601 73.5 A 6.673 6.673 0 0 1 174.245 68.119 A 11.556 11.556 0 0 1 176.301 66.8 A 17.126 17.126 0 0 1 181.907 65.086 A 21.89 21.89 0 0 1 184.801 64.9 A 4.122 4.122 0 0 1 185.084 64.909 Q 185.701 64.952 185.701 65.2 A 0.304 0.304 0 0 1 185.526 65.476 Q 185.304 65.6 184.801 65.6 Q 180.701 65.6 177.801 67.2 A 8.743 8.743 0 0 0 175.88 68.538 A 5.739 5.739 0 0 0 174.001 72.9 A 5.43 5.43 0 0 0 175.916 77.176 A 7.485 7.485 0 0 0 176.901 77.9 A 11.306 11.306 0 0 0 182.304 79.395 A 13.419 13.419 0 0 0 182.701 79.4 Q 191.601 79.4 199.101 71.2 A 40.016 40.016 0 0 0 201.308 68.589 Q 202.739 66.75 204.201 64.5 A 86.626 86.626 0 0 0 206.785 60.248 Q 208.13 57.892 209.501 55.2 Q 210.343 53.439 211.743 50.535 A 4447.817 4447.817 0 0 1 212.651 48.65 Q 214.677 44.451 217.435 38.152 A 548.578 548.578 0 0 0 217.501 38 Q 219.901 32.5 222.001 28.3 A 284.861 284.861 0 0 1 223.52 25.305 Q 224.129 24.121 224.7 23.045 A 162.854 162.854 0 0 1 225.801 21 Z M 3.17 89.691 A 11.126 11.126 0 0 0 4.801 89.8 A 16.028 16.028 0 0 0 6.123 89.745 Q 11.023 89.339 17.081 85.978 A 59.836 59.836 0 0 0 22.701 82.4 A 39.93 39.93 0 0 0 25.863 83.722 Q 29.904 85.2 33.101 85.2 A 3.366 3.366 0 0 0 33.313 85.194 Q 33.661 85.172 33.855 85.073 A 0.399 0.399 0 0 0 34.101 84.7 Q 34.101 84.298 33.519 84.155 A 2.483 2.483 0 0 0 33.201 84.1 A 113.428 113.428 0 0 1 32.976 84.06 Q 26.358 82.879 23.801 81.6 A 92.719 92.719 0 0 0 29.346 77.121 Q 34.017 73.054 38.856 67.874 A 189.621 189.621 0 0 0 48.301 56.9 A 78.429 78.429 0 0 1 48.963 56.817 Q 51.03 56.565 53.651 56.35 Q 56.701 56.1 60.401 55.9 A 6178.922 6178.922 0 0 1 62.081 55.768 Q 64.658 55.565 66.151 55.45 Q 67.149 55.374 67.636 55.074 A 0.872 0.872 0 0 0 68.101 54.3 Q 68.101 54 67.501 54 Q 67.59 54 66.584 54.039 A 724.472 724.472 0 0 1 66.301 54.05 A 310.712 310.712 0 0 1 66.202 54.054 Q 64.893 54.104 62.101 54.2 A 5579.523 5579.523 0 0 0 59.531 54.321 Q 58.304 54.378 57.195 54.431 A 2947.405 2947.405 0 0 0 54.701 54.55 Q 51.601 54.7 49.901 54.9 Q 54.001 49.5 57.701 43.95 Q 61.401 38.4 64.501 32.7 A 125.362 125.362 0 0 0 66.954 27.984 Q 70.733 20.305 72.07 14.539 A 25.615 25.615 0 0 0 72.801 8.8 A 12.15 12.15 0 0 0 72.57 6.37 A 8.524 8.524 0 0 0 70.701 2.45 A 6.731 6.731 0 0 0 67.17 0.29 A 9.917 9.917 0 0 0 64.701 0 A 3.606 3.606 0 0 0 64.545 0.004 Q 63.601 0.045 63.601 0.6 Q 63.601 0.925 64.195 1.118 A 3.34 3.34 0 0 0 64.501 1.2 A 6.841 6.841 0 0 1 65.562 1.457 Q 68.801 2.534 68.801 6.7 A 21.796 21.796 0 0 1 68.305 11.058 Q 66.711 18.795 60.001 31.3 Q 56.601 37.7 52.901 43.7 Q 49.201 49.7 45.201 55.3 A 63.762 63.762 0 0 0 44.843 55.327 Q 42.26 55.526 40.201 55.9 Q 41.301 54.5 42.251 53.15 Q 43.201 51.8 43.901 50.6 A 78.127 78.127 0 0 0 46.581 48.435 Q 50.372 45.218 51.462 43.217 A 3.056 3.056 0 0 0 51.901 41.8 Q 51.901 41.1 51.301 41.1 A 2.223 2.223 0 0 0 51.008 41.121 Q 50.5 41.189 49.803 41.478 A 10.947 10.947 0 0 0 49.101 41.8 A 385.108 385.108 0 0 0 53.741 32.899 Q 60.519 19.434 62.336 12.501 A 17.233 17.233 0 0 0 63.001 8.3 A 1.484 1.484 0 0 0 62.998 8.195 Q 62.983 7.982 62.901 7.9 A 2.065 2.065 0 0 0 62.872 7.93 Q 62.39 8.432 62.001 9.5 Q 60.001 15.5 57.701 21.2 Q 55.401 26.9 52.801 32.3 A 144.151 144.151 0 0 1 52.021 33.972 Q 50.773 36.598 49.701 38.55 A 78.545 78.545 0 0 1 49.434 39.033 Q 48.63 40.474 47.965 41.513 A 23.338 23.338 0 0 1 47.301 42.5 Q 46.501 39.3 45.101 39.3 A 1.438 1.438 0 0 0 44.15 39.646 Q 43.104 40.523 42.869 43.621 A 26.357 26.357 0 0 0 42.801 45.6 Q 42.801 46.716 42.931 48.219 A 58.173 58.173 0 0 0 43.101 49.9 A 31.266 31.266 0 0 1 42.344 51.154 A 40.042 40.042 0 0 1 41.201 52.85 A 101.532 101.532 0 0 1 40.348 54.034 A 121.42 121.42 0 0 1 38.801 56.1 A 104.802 104.802 0 0 0 35.995 56.67 A 84.61 84.61 0 0 0 31.951 57.65 A 50.886 50.886 0 0 0 29.574 58.353 A 40.949 40.949 0 0 0 26.201 59.6 A 51.574 51.574 0 0 0 22.902 61.139 Q 13.301 66.061 13.301 72.1 A 6.793 6.793 0 0 0 13.631 74.176 Q 14.344 76.412 16.601 78.6 Q 11.167 82.86 7.674 83.991 A 7.462 7.462 0 0 1 5.401 84.4 A 0.927 0.927 0 0 1 5.345 84.399 Q 5.217 84.391 5.036 84.349 A 3.924 3.924 0 0 1 4.851 84.3 Q 4.501 84.2 4.301 84.2 Q 3.508 84.2 3.501 84.889 A 1.211 1.211 0 0 0 3.501 84.9 A 0.75 0.75 0 0 0 3.682 85.417 Q 4.023 85.8 5.001 85.8 A 5.37 5.37 0 0 0 5.705 85.752 Q 8.686 85.357 13.842 81.772 A 74.214 74.214 0 0 0 17.301 79.2 Q 18.801 80.5 20.901 81.6 Q 15.143 85.904 10.305 87.484 A 17.105 17.105 0 0 1 5.001 88.4 Q 1.001 88.4 1.001 85.5 Q 1.001 84.5 1.301 83.5 Q 0.001 84.5 0.001 86.7 A 2.799 2.799 0 0 0 0.428 88.273 Q 1.163 89.392 3.17 89.691 Z M 159.101 48.3 L 160.801 42.1 A 17.363 17.363 0 0 0 157.711 45.403 Q 152.439 52.438 145.701 70.2 A 0.16 0.16 0 0 1 145.603 70.35 Q 145.525 70.389 145.386 70.398 A 1.347 1.347 0 0 1 145.301 70.4 A 1.647 1.647 0 0 1 144.681 70.271 Q 144.258 70.1 143.801 69.7 Q 143.001 69 143.001 68.2 L 143.801 66.1 Q 144.701 64.1 144.701 64 A 28.046 28.046 0 0 0 145.698 60.021 Q 146.473 55.751 146.583 49.66 A 114.323 114.323 0 0 0 146.601 47.6 Q 146.601 39.4 143.101 39.4 Q 141.496 39.4 139.247 41.257 A 19.425 19.425 0 0 0 138.401 42 A 155.752 155.752 0 0 1 137.789 42.586 Q 135.776 44.5 135.601 44.5 A 0.315 0.315 0 0 1 135.463 44.472 Q 135.33 44.408 135.306 44.198 A 0.875 0.875 0 0 1 135.301 44.1 A 0.316 0.316 0 0 1 135.308 44.045 Q 135.333 43.916 135.447 43.565 A 20.867 20.867 0 0 1 135.501 43.4 Q 136.572 41.717 138.638 40.034 A 25.791 25.791 0 0 1 140.001 39 Q 143.301 36.6 145.501 36.6 Q 149.701 36.6 149.701 44.7 A 38.044 38.044 0 0 1 149.068 51.423 Q 148.488 54.648 147.379 58.148 A 65.677 65.677 0 0 1 147.001 59.3 A 130.513 130.513 0 0 1 150.513 53.195 Q 155.919 44.403 160.109 41.591 A 10.172 10.172 0 0 1 161.101 41 A 40.365 40.365 0 0 1 161.952 38.287 Q 162.858 35.737 163.892 34.204 A 8.472 8.472 0 0 1 164.501 33.4 A 8.049 8.049 0 0 1 169.171 30.581 A 12.532 12.532 0 0 1 171.901 30.3 Q 173.235 30.3 173.58 30.63 A 0.362 0.362 0 0 1 173.701 30.9 A 0.371 0.371 0 0 1 173.599 31.152 Q 173.475 31.291 173.201 31.4 Q 171.901 31.7 170.901 32.2 A 10.261 10.261 0 0 0 168.49 34.79 Q 165.426 39.274 163.101 49.3 A 37446.09 37446.09 0 0 1 161.97 54.06 Q 160.874 58.668 160.071 62.04 A 9343.664 9343.664 0 0 1 159.401 64.85 A 5471.719 5471.719 0 0 1 158.952 66.731 Q 158.064 70.45 157.901 71.1 Q 154.201 84.5 149.501 93.1 Q 143.401 104 134.501 109 Q 130.401 111.3 125.801 111.3 Q 121.09 111.3 116.025 108.045 A 31.38 31.38 0 0 1 114.101 106.7 A 22.93 22.93 0 0 1 111.291 104.228 Q 109.916 102.784 109.116 101.302 A 8.751 8.751 0 0 1 108.001 97.1 Q 108.001 96.719 108.275 96.701 A 0.421 0.421 0 0 1 108.301 96.7 A 0.415 0.415 0 0 1 108.676 96.92 Q 108.726 97.003 108.76 97.117 A 1.495 1.495 0 0 1 108.801 97.3 A 19.165 19.165 0 0 0 111.992 102.724 Q 115.774 107.126 122.028 107.711 A 21.203 21.203 0 0 0 124.001 107.8 Q 129.601 107.8 134.401 105.1 A 32.849 32.849 0 0 0 145.85 94.281 A 43.261 43.261 0 0 0 148.901 88.8 A 45.965 45.965 0 0 0 150.094 85.915 Q 151.083 83.294 152.051 79.95 A 114.766 114.766 0 0 0 153.379 74.915 Q 154.005 72.317 154.605 69.389 A 204.175 204.175 0 0 0 155.001 67.4 L 156.501 59.4 A 112.108 112.108 0 0 1 157.289 55.589 Q 157.804 53.285 158.468 50.704 A 206.96 206.96 0 0 1 159.101 48.3 Z M 269.201 48.3 L 270.901 42.1 A 17.363 17.363 0 0 0 267.811 45.403 Q 262.539 52.438 255.801 70.2 A 0.16 0.16 0 0 1 255.703 70.35 Q 255.625 70.389 255.486 70.398 A 1.347 1.347 0 0 1 255.401 70.4 A 1.647 1.647 0 0 1 254.781 70.271 Q 254.358 70.1 253.901 69.7 Q 253.101 69 253.101 68.2 L 253.901 66.1 Q 254.801 64.1 254.801 64 A 28.046 28.046 0 0 0 255.798 60.021 Q 256.573 55.751 256.683 49.66 A 114.323 114.323 0 0 0 256.701 47.6 Q 256.701 39.4 253.201 39.4 Q 251.596 39.4 249.347 41.257 A 19.425 19.425 0 0 0 248.501 42 A 155.752 155.752 0 0 1 247.889 42.586 Q 245.876 44.5 245.701 44.5 A 0.315 0.315 0 0 1 245.563 44.472 Q 245.43 44.408 245.406 44.198 A 0.875 0.875 0 0 1 245.401 44.1 A 0.316 0.316 0 0 1 245.408 44.045 Q 245.433 43.916 245.547 43.565 A 20.867 20.867 0 0 1 245.601 43.4 Q 246.672 41.717 248.738 40.034 A 25.791 25.791 0 0 1 250.101 39 Q 253.401 36.6 255.601 36.6 Q 259.801 36.6 259.801 44.7 A 38.044 38.044 0 0 1 259.168 51.423 Q 258.588 54.648 257.479 58.148 A 65.677 65.677 0 0 1 257.101 59.3 A 130.513 130.513 0 0 1 260.613 53.195 Q 266.019 44.403 270.209 41.591 A 10.172 10.172 0 0 1 271.201 41 A 40.365 40.365 0 0 1 272.052 38.287 Q 272.958 35.737 273.992 34.204 A 8.472 8.472 0 0 1 274.601 33.4 A 8.049 8.049 0 0 1 279.271 30.581 A 12.532 12.532 0 0 1 282.001 30.3 Q 283.335 30.3 283.68 30.63 A 0.362 0.362 0 0 1 283.801 30.9 A 0.371 0.371 0 0 1 283.699 31.152 Q 283.575 31.291 283.301 31.4 Q 282.001 31.7 281.001 32.2 A 10.261 10.261 0 0 0 278.59 34.79 Q 275.526 39.274 273.201 49.3 A 37446.09 37446.09 0 0 1 272.07 54.06 Q 270.974 58.668 270.171 62.04 A 9343.664 9343.664 0 0 1 269.501 64.85 A 5471.719 5471.719 0 0 1 269.052 66.731 Q 268.164 70.45 268.001 71.1 Q 264.301 84.5 259.601 93.1 Q 253.501 104 244.601 109 Q 240.501 111.3 235.901 111.3 Q 231.19 111.3 226.125 108.045 A 31.38 31.38 0 0 1 224.201 106.7 A 22.93 22.93 0 0 1 221.391 104.228 Q 220.016 102.784 219.216 101.302 A 8.751 8.751 0 0 1 218.101 97.1 Q 218.101 96.719 218.375 96.701 A 0.421 0.421 0 0 1 218.401 96.7 A 0.415 0.415 0 0 1 218.776 96.92 Q 218.826 97.003 218.86 97.117 A 1.495 1.495 0 0 1 218.901 97.3 A 19.165 19.165 0 0 0 222.092 102.724 Q 225.874 107.126 232.128 107.711 A 21.203 21.203 0 0 0 234.101 107.8 Q 239.701 107.8 244.501 105.1 A 32.849 32.849 0 0 0 255.95 94.281 A 43.261 43.261 0 0 0 259.001 88.8 A 45.965 45.965 0 0 0 260.194 85.915 Q 261.183 83.294 262.151 79.95 A 114.766 114.766 0 0 0 263.479 74.915 Q 264.105 72.317 264.705 69.389 A 204.175 204.175 0 0 0 265.101 67.4 L 266.601 59.4 A 112.108 112.108 0 0 1 267.389 55.589 Q 267.904 53.285 268.568 50.704 A 206.96 206.96 0 0 1 269.201 48.3 Z M 87.701 69.9 L 87.701 69.8 A 2.106 2.106 0 0 1 87.743 69.397 Q 87.783 69.197 87.859 68.971 A 4.984 4.984 0 0 1 88.001 68.6 A 35.114 35.114 0 0 0 89.025 65.673 Q 90.036 62.355 90.882 57.76 A 114.122 114.122 0 0 0 91.001 57.1 A 14.63 14.63 0 0 0 91.146 56.01 Q 91.301 54.444 91.301 52 Q 91.301 50.8 90.951 48.3 Q 90.675 46.326 90.617 45.162 A 11.356 11.356 0 0 1 90.601 44.6 A 0.932 0.932 0 0 1 90.997 43.814 Q 91.143 43.705 91.343 43.623 A 2.141 2.141 0 0 1 91.401 43.6 L 95.801 42.4 Q 97.232 39.157 100.482 39.008 A 6.931 6.931 0 0 1 100.801 39 A 2.804 2.804 0 0 1 101.184 39.024 Q 102.15 39.158 101.859 40.046 A 2.109 2.109 0 0 1 101.801 40.2 Q 102.72 39.818 103.287 39.552 A 13.71 13.71 0 0 0 103.601 39.4 L 104.201 39.1 A 0.183 0.183 0 0 1 104.306 39.129 Q 104.378 39.178 104.396 39.307 A 0.693 0.693 0 0 1 104.401 39.4 A 0.8 0.8 0 0 1 104.201 39.882 Q 103.746 40.465 102.253 41.211 A 22.944 22.944 0 0 1 101.201 41.7 Q 99.542 45.604 97.265 51.459 A 609.574 609.574 0 0 0 97.151 51.75 Q 94.801 57.8 91.701 66 Q 94.365 62.993 96.402 60.502 A 122.587 122.587 0 0 0 97.051 59.7 Q 99.301 56.9 100.801 54.9 Q 101.54 53.557 102.641 51.784 A 130.198 130.198 0 0 1 103.801 49.95 A 672.407 672.407 0 0 1 105.579 47.206 Q 106.491 45.805 107.51 44.252 A 1156.795 1156.795 0 0 1 108.201 43.2 A 4.499 4.499 0 0 1 110.862 41.559 A 7.035 7.035 0 0 1 112.401 41.4 A 5.228 5.228 0 0 1 113.423 41.491 Q 115.201 41.847 115.201 43.6 Q 115.201 44.366 113.535 48.683 A 191.977 191.977 0 0 1 112.901 50.3 Q 110.336 56.623 110.121 57.488 A 0.543 0.543 0 0 0 110.101 57.6 A 45.201 45.201 0 0 0 114.72 52.848 A 49.899 49.899 0 0 0 115.051 52.45 Q 117.401 49.6 119.501 46.3 Q 119.788 45.799 120.075 45.657 A 0.506 0.506 0 0 1 120.301 45.6 A 0.249 0.249 0 0 1 120.539 45.749 Q 120.601 45.873 120.601 46.1 A 2.033 2.033 0 0 1 120.415 46.799 Q 119.749 48.423 116.705 52.741 A 175.139 175.139 0 0 1 115.301 54.7 Q 113.701 56.9 112.001 59.1 L 108.601 63.5 A 0.875 0.875 0 0 1 108.206 63.842 Q 107.899 63.985 107.411 63.999 A 3.77 3.77 0 0 1 107.301 64 A 1.008 1.008 0 0 1 107.024 63.966 Q 106.714 63.877 106.631 63.56 A 1.031 1.031 0 0 1 106.601 63.3 A 2.833 2.833 0 0 1 106.619 63.011 Q 106.669 62.536 106.859 61.687 A 29.497 29.497 0 0 1 106.901 61.5 A 608.081 608.081 0 0 0 107.064 60.794 Q 107.244 60.008 107.478 58.982 A 1981.686 1981.686 0 0 0 107.701 58 L 109.301 51.7 Q 109.701 49.9 109.901 48.3 Q 110.101 46.7 110.101 45.3 Q 107.422 49.358 103.452 54.178 A 168.919 168.919 0 0 1 100.901 57.2 L 91.001 68.5 A 4.761 4.761 0 0 1 90.766 69.577 Q 90.185 71.2 88.401 71.2 A 1.474 1.474 0 0 1 88.062 71.165 Q 87.501 71.032 87.501 70.4 A 0.426 0.426 0 0 1 87.531 70.247 A 0.523 0.523 0 0 1 87.551 70.2 L 87.701 69.9 Z M 71.101 31.2 L 72.001 21.1 A 9.267 9.267 0 0 1 72.05 20.503 Q 72.156 19.614 72.42 19.332 A 0.376 0.376 0 0 1 72.701 19.2 A 0.878 0.878 0 0 1 73.522 19.742 Q 73.801 20.292 73.801 21.4 L 73.801 38.2 A 265.542 265.542 0 0 0 74.065 50.518 Q 74.872 67.815 78.147 75.735 A 24.278 24.278 0 0 0 78.301 76.1 A 21.236 21.236 0 0 0 79.526 78.516 Q 81.016 81.009 82.746 81.86 A 4.155 4.155 0 0 0 84.601 82.3 A 6.225 6.225 0 0 0 87.754 81.344 Q 91.149 79.35 95.001 73.2 A 4.947 4.947 0 0 1 94.72 74.544 Q 94.212 76.019 92.801 77.9 A 28.374 28.374 0 0 1 91.603 79.43 Q 90.401 80.852 89.37 81.594 A 6.137 6.137 0 0 1 88.901 81.9 A 11.787 11.787 0 0 1 86.656 82.882 A 8.881 8.881 0 0 1 84.001 83.3 A 9.732 9.732 0 0 1 80.347 82.55 Q 78.983 82 77.583 81.049 A 20.441 20.441 0 0 1 76.301 80.1 A 23.092 23.092 0 0 1 73.219 77.077 A 17.064 17.064 0 0 1 70.701 73.1 Q 68.61 68.539 68.507 60.183 A 71.108 71.108 0 0 1 68.501 59.3 A 30.946 30.946 0 0 1 68.548 57.737 Q 68.695 54.893 69.301 49.55 Q 70.017 43.244 70.893 33.537 A 1381.845 1381.845 0 0 0 71.101 31.2 Z M 126.153 67.059 A 7.584 7.584 0 0 0 131.901 69.7 A 4.771 4.771 0 0 0 132.237 69.688 Q 133.01 69.633 134.091 69.339 A 20.884 20.884 0 0 0 135.201 69 A 13.356 13.356 0 0 0 135.71 68.813 Q 137.501 68.106 137.501 67.4 A 0.25 0.25 0 0 0 137.441 67.228 Q 137.36 67.137 137.171 67.111 A 1.246 1.246 0 0 0 137.001 67.1 Q 136.622 67.1 135.87 67.359 A 13.217 13.217 0 0 0 135.351 67.55 Q 134.201 68 133.501 68 Q 130.142 68 127.942 63.789 A 20.039 20.039 0 0 1 126.801 61.1 A 38.414 38.414 0 0 1 126.224 59.12 A 33.073 33.073 0 0 1 125.101 50.7 A 31.3 31.3 0 0 1 125.163 48.698 A 23.931 23.931 0 0 1 125.401 46.5 A 35.498 35.498 0 0 1 125.494 45.884 Q 125.68 44.731 125.823 44.474 A 0.113 0.113 0 0 1 125.901 44.4 A 0.607 0.607 0 0 0 125.738 44.17 Q 125.525 43.981 125.1 43.924 A 3.053 3.053 0 0 0 124.701 43.9 A 9.631 9.631 0 0 0 124.029 43.923 Q 122.952 43.998 122.318 44.33 A 1.665 1.665 0 0 0 121.601 45 A 5.972 5.972 0 0 0 121.4 45.522 Q 120.996 46.722 120.865 48.569 A 27.345 27.345 0 0 0 120.801 50.5 Q 120.801 56.8 123.301 62.4 Q 124.536 65.309 126.153 67.059 Z M 22.101 80.7 A 88.982 88.982 0 0 0 29.784 73.716 Q 36.339 67.075 43.401 57.7 Q 41.901 58 40.451 58.35 Q 39.001 58.7 37.601 59.1 Q 29.001 69.4 19.001 77.8 A 6.401 6.401 0 0 0 19.831 78.853 A 7.736 7.736 0 0 0 20.301 79.3 Q 21.101 80 22.101 80.7 Z M 18.501 77.1 A 115.906 115.906 0 0 0 26.807 69.548 A 127.102 127.102 0 0 0 27.351 69 A 181.964 181.964 0 0 0 34.926 60.841 A 200.274 200.274 0 0 0 36.001 59.6 A 48.658 48.658 0 0 0 29.575 62.17 A 38.252 38.252 0 0 0 24.701 65 Q 17.901 69.5 17.901 74.3 A 6.907 6.907 0 0 0 18.328 76.663 A 8.123 8.123 0 0 0 18.501 77.1 Z M 95.101 44.1 L 92.401 45 Q 92.601 46.3 92.751 47.6 Q 92.901 48.9 92.901 50.3 Q 93.401 48.6 94.001 47 Q 94.601 45.4 95.101 44.1 Z" vector-effect="non-scaling-stroke"/></g></svg>